<svg width="188" height="211" viewBox="0 0 188 211" fill="none" xmlns="http://www.w3.org/2000/svg">
<path d="M41.7011 77.4814H0V100.266C0 118.172 14.5275 132.7 32.4342 132.7H55.2183V90.9986C55.2183 83.5433 49.1565 77.4814 41.7011 77.4814Z" fill="#232323"/>
<path d="M66.0879 90.9986V132.7H107.789C115.244 132.7 121.306 126.638 121.306 119.183V77.4814H79.6051C72.1497 77.4814 66.0879 83.5433 66.0879 90.9986Z" fill="#232323"/>
<path d="M154.995 77.4814H132.21V119.183C132.21 126.638 138.272 132.7 145.728 132.7H187.429V106.153C187.429 88.2464 172.901 77.5163 154.995 77.5163V77.4814Z" fill="#232323"/>
<path d="M0 45.9514V66.6103H41.7011C49.1565 66.6103 55.2183 60.5485 55.2183 53.0932V0C25.8498 0.209028 0.034838 14.6668 0 45.9514Z" fill="#232323"/>
<path d="M66.0879 53.0935C66.0879 60.5488 72.1497 66.6106 79.6051 66.6106H121.306V11.462C100.926 8.3614 90.3003 1.74218 66.0879 0.244141V53.0586V53.0935Z" fill="#232323"/>
<path d="M144.09 13.0649C139.77 13.0649 135.834 12.9255 132.21 12.6817V66.611H154.995C172.901 66.611 187.429 52.0835 187.429 34.1767V0.174805C177.291 8.11788 162.903 13.0649 144.09 13.0649Z" fill="#232323"/>
<path d="M0 176.002V210.004C10.1379 202.061 24.526 197.114 43.3385 197.114C47.6584 197.114 51.5951 197.253 55.2183 197.532V143.603H32.4342C14.5275 143.603 0 158.13 0 176.037L0 176.002Z" fill="#232323"/>
<path d="M107.789 143.603H66.0879V198.716C86.4681 201.817 97.0938 208.436 121.306 209.934V157.12C121.306 149.664 115.244 143.603 107.789 143.603Z" fill="#232323"/>
<path d="M132.21 157.086V210.179C161.544 209.97 187.324 195.512 187.429 164.297V143.568H145.728C138.272 143.568 132.21 149.63 132.21 157.086Z" fill="#232323"/>
</svg>
