<?xml version="1.0" encoding="UTF-8"?>
<svg id="Layer_1" xmlns="http://www.w3.org/2000/svg" version="1.1" viewBox="0 0 285 393">
  <!-- Generator: Adobe Illustrator 29.8.2, SVG Export Plug-In . SVG Version: 2.1.1 Build 3)  -->
  <defs>
    <style>
      .st0 {
        fill: #232323;
      }

      .st1 {
        fill: #fff;
      }

      .st2 {
        fill: #ffdc4a;
      }

      .st3 {
        fill: #ff5601;
      }
    </style>
  </defs>
  <path class="st1" d="M234.04,276.6l-15.37-14.03,10.62-14.21s20.27-9.81,30.41-2.38"/>
  <path class="st0" d="M234.04,278.43c-.44,0-.88-.16-1.23-.48l-15.37-14.03c-.69-.63-.79-1.69-.23-2.44l10.62-14.21c.17-.23.4-.42.67-.55.87-.42,21.38-10.2,32.28-2.21.81.59.99,1.74.39,2.55-.59.81-1.74.99-2.55.39-8.41-6.16-25.36,1.11-28.14,2.37l-9.36,12.51,14.15,12.92c.74.68.8,1.83.12,2.58-.36.39-.85.59-1.35.59Z"/>
  <g>
    <path class="st1" d="M250.86,264.55c7-8.55,10.97-16.86,8.87-18.57-2.09-1.71-9.46,3.83-16.45,12.39-7,8.55-10.97,16.86-8.87,18.57,2.09,1.71,9.46-3.83,16.45-12.39Z"/>
    <path class="st0" d="M235.38,279.08c-.82,0-1.53-.24-2.12-.73-5.05-4.14,7.2-19.41,8.62-21.14,3.47-4.25,7.15-7.92,10.37-10.34,4.01-3.02,6.84-3.77,8.64-2.3,5.05,4.13-7.2,19.41-8.62,21.14-3.47,4.25-7.15,7.92-10.37,10.35-2.69,2.02-4.84,3.03-6.51,3.03ZM258.48,247.5c-1.77.26-7.34,4.13-13.79,12.02-6.45,7.88-9.13,14.11-9.04,15.9,1.77-.26,7.35-4.13,13.79-12.02,0,0,0,0,0,0,6.45-7.88,9.13-14.11,9.04-15.9Z"/>
  </g>
  <g>
    <path class="st1" d="M175.37,225.79l45.81,38.95s2.99-13.79,16.76-19.62c0,0-8.57-35.73-36.16-39.5l-26.41,20.16Z"/>
    <path class="st0" d="M221.18,266.57c-.43,0-.85-.15-1.18-.43l-45.81-38.95c-.42-.36-.66-.89-.64-1.44.01-.55.28-1.07.72-1.4l26.41-20.16c.39-.29.87-.42,1.35-.36,11.85,1.62,22.13,9.24,29.74,22.04,5.67,9.53,7.85,18.47,7.94,18.84.21.87-.24,1.76-1.06,2.11-12.69,5.37-15.66,18.2-15.68,18.33-.14.62-.59,1.13-1.2,1.34-.19.06-.39.1-.58.1ZM178.27,225.87l41.98,35.69c1.6-4.36,5.81-12.74,15.51-17.45-1.93-6.51-11.1-32.96-33.49-36.56l-24,18.32Z"/>
  </g>
  <g>
    <path class="st1" d="M68.92,245.6c-2.56-.82-7.37,7.06-10.75,17.54-3.39,10.5-3.98,19.69-1.43,20.51,0,0,10.16,5.06,23.17-13.04l11-17.13-22.04-7.93.04.03h0Z"/>
    <path class="st0" d="M60.32,286.13c-2.3,0-3.81-.58-4.27-.78-.57-.21-1.32-.69-1.87-1.76-1.92-3.74-.25-13.25,2.25-21,.67-2.06,6.5-19.58,12.48-18.85.19,0,.38.04.57.11l22.04,7.93c.52.19.93.6,1.11,1.13.18.53.11,1.1-.19,1.57l-11,17.13c-8.78,12.22-16.52,14.53-21.12,14.53ZM57.45,281.98s.07.03.1.05c.34.16,9.07,3.96,20.87-12.47l9.71-15.12-19.57-7.04s-.02,0-.04,0c-1.4.49-5.36,6.2-8.62,16.32-3.26,10.09-3.33,17.05-2.45,18.27ZM57.29,281.92h0,0Z"/>
  </g>
  <g>
    <path class="st1" d="M101.45,234.37s5.09,4.87.93,11.71c-5.48,9.04-18.98,5.11-18.98,5.11-5.01,3.6-5.15,13.16-3.45,19.42,0,0,23.74,6.89,38.2,1.42,22.89-5.31,32.28-25.94,32.35-44.18l-49.05,6.51Z"/>
    <path class="st0" d="M104.27,275.98c-12.19,0-24.13-3.41-24.83-3.61-.61-.18-1.09-.66-1.25-1.28-1.67-6.19-1.95-17,4.15-21.38.46-.33,1.04-.43,1.57-.27.12.04,12.23,3.42,16.91-4.3,3.26-5.37-.23-9.06-.64-9.46-.5-.49-.68-1.22-.46-1.88.22-.66.79-1.14,1.48-1.23l49.05-6.51c.52-.07,1.05.09,1.45.44.4.35.62.85.62,1.38-.07,17.57-8.92,40.12-33.65,45.92-4.33,1.62-9.39,2.19-14.41,2.19ZM81.46,269.14c4.6,1.2,23.97,5.76,36.04,1.2.08-.03.15-.05.23-.07,21.77-5.05,30.16-24.4,30.89-40.31l-43.96,5.83c1.36,2.73,1.99,6.78-.72,11.25-5.3,8.74-16.69,6.93-20.09,6.16-3.17,3.03-3.72,10.1-2.39,15.95Z"/>
  </g>
  <path class="st0" d="M140.98,392.21c43.85,0,79.41-6.28,79.41-14.01s-35.55-14.01-79.41-14.01-79.41,6.28-79.41,14.01,35.55,14.01,79.41,14.01Z"/>
  <path class="st3" d="M140.98,53.16C137.82-7.65,34.87-17.15,0,29.11c0,0,78.71-12.81,68.07,39.08-22.08-21.28-50.42-7.5-65.22,15.73,0,0,53.82-13.9,42.72,45.95-1.22,6.58-13.31,51.94,16.01,89.39,25.57,32.66,65.48,39.24,103.5,31.55,46.79-9.47,103.32-48.36,85.71-120.82-22.34-91.89-109.81-76.82-109.81-76.82h0Z"/>
  <path class="st0" d="M212.91,185.19c-4.77,0-8.58-4.88-8.7-11.16-.05-2.91.72-5.68,2.19-7.81,1.59-2.31,3.8-3.61,6.22-3.65,2.43,0,4.67,1.17,6.34,3.43,1.54,2.07,2.42,4.81,2.47,7.72.05,2.91-.72,5.68-2.19,7.81-1.19,1.73-2.72,2.89-4.43,3.38v.25l-1.8.03s-.07,0-.11,0ZM212.99,183.36h0,0ZM212.73,166.21s-.04,0-.06,0c-1.21.02-2.37.76-3.28,2.08-1.04,1.5-1.58,3.52-1.54,5.67.08,4.04,2.29,7.43,4.88,7.58h.22c1.21-.03,2.37-.76,3.28-2.08,1.04-1.5,1.58-3.52,1.54-5.67-.04-2.12-.68-4.17-1.75-5.62-.94-1.26-2.11-1.96-3.29-1.96Z"/>
  <path class="st0" d="M173.65,153.16c2.54-.34,4.21-3.47,3.75-7.01-.47-3.54-2.91-6.13-5.45-5.79-2.54.34-4.21,3.47-3.74,7.02.47,3.53,2.91,6.13,5.45,5.79h-.01Z"/>
  <path class="st0" d="M197.37,146.74c2.54-.34,4.21-3.47,3.74-7.01-.47-3.53-2.91-6.13-5.45-5.79-2.54.34-4.21,3.47-3.75,7.02.47,3.53,2.91,6.13,5.45,5.79h.01Z"/>
  <path class="st0" d="M224.38,191.75c-.63,0-1.24-.32-1.58-.9-.51-.87-.22-1.99.65-2.5,4.67-2.74,6.35-7.55,6.93-11.11,1.06-6.42-.66-12.41-1.88-13.82-.66-.76-.58-1.91.19-2.57.76-.66,1.91-.58,2.57.19,2.23,2.57,3.85,9.94,2.72,16.8-1.02,6.21-4.03,10.93-8.69,13.66-.29.17-.61.25-.92.25Z"/>
  <path class="st0" d="M136.69,118.55c-.81,0-1.54-.54-1.76-1.35-.26-.97.32-1.97,1.29-2.23,21.95-5.88,37.94-18.07,47.55-36.24,7.19-13.6,7.9-25.65,7.91-25.77.05-1.01.92-1.77,1.92-1.73,1.01.05,1.78.91,1.73,1.91-.03.52-.73,12.85-8.25,27.14-6.93,13.19-21.22,30.52-49.91,38.2-.16.04-.32.06-.47.06Z"/>
  <path class="st2" d="M111.7,232.05c22.04,0,39.91-17.27,39.91-38.58s-17.87-38.58-39.91-38.58-39.91,17.27-39.91,38.58,17.87,38.58,39.91,38.58Z"/>
  <g>
    <path class="st1" d="M98.27,97.63c.8-.44,1.54-.47,1.96.34,4.86,9.37,3.07,25.8-6.71,22.99-8.93-2.56-3.51-18.82,4.75-23.33h0Z"/>
    <path class="st0" d="M95.62,123.11c-.84,0-1.71-.13-2.61-.38-3.35-.96-5.43-3.57-5.85-7.33-.75-6.79,4.12-16.02,10.22-19.35.04-.02.09-.05.13-.07.91-.47,1.78-.58,2.58-.34.52.16,1.25.55,1.75,1.51,3.84,7.42,3.71,18.21-.29,23.09-1.56,1.9-3.61,2.88-5.94,2.88ZM98.88,99.38c-4.7,2.75-8.68,10.38-8.1,15.61.25,2.3,1.31,3.68,3.23,4.23,2.02.58,3.52.17,4.72-1.3,2.98-3.64,3.01-12.48.15-18.53ZM98.27,97.63h0,0Z"/>
  </g>
  <g>
    <path class="st1" d="M48.09,120.27c1.15-.63,2.21-.68,2.82.49,7,13.45,4.48,37.04-9.58,33.04-12.83-3.66-5.1-27.02,6.77-33.53h0Z"/>
    <path class="st0" d="M44.31,156.06c-1.12,0-2.29-.17-3.49-.51-4.49-1.28-7.28-4.78-7.85-9.85-1.06-9.43,5.65-22.23,14.11-26.96.04-.02.08-.05.12-.07,1.18-.65,2.28-.83,3.27-.53.61.18,1.45.64,2.05,1.77,5.41,10.4,5.29,25.49-.26,32.3-2.07,2.54-4.82,3.86-7.95,3.86ZM49.07,121.81s-.06.04-.09.05c-7.26,3.98-13.28,15.37-12.37,23.42.41,3.61,2.16,5.88,5.22,6.75,3.2.91,5.69.21,7.61-2.15,4.56-5.59,4.51-19.27-.09-28.2-.07.02-.16.06-.27.12Z"/>
  </g>
  <g>
    <path class="st1" d="M256.16,82.96c-.17-1.11.1-1.98,1.21-2.13,12.89-1.75,31.23,7.14,23.92,17.34-6.68,9.31-23.3-3.73-25.12-15.2h0Z"/>
    <path class="st0" d="M275.13,103.17c-.92,0-1.87-.12-2.86-.35-8.05-1.91-16.59-11.23-17.91-19.56,0-.03,0-.06-.01-.09-.17-1.18.03-2.17.59-2.92.35-.47,1.02-1.07,2.19-1.22,10.06-1.37,22.33,3.17,26.26,9.71,2.03,3.37,1.81,7.1-.63,10.5-1.85,2.59-4.5,3.93-7.63,3.93ZM257.97,82.75c1.13,6.93,8.47,14.94,15.14,16.52,2.92.69,5.17-.04,6.69-2.16,1.6-2.23,1.75-4.35.47-6.49-3.12-5.18-13.88-9.03-22.32-8.02,0,.03,0,.05.01.08,0,.02,0,.05,0,.07Z"/>
  </g>
  <g>
    <path class="st1" d="M226.24,61.87c-.93-.64-1.37-1.44-.71-2.35,7.65-10.53,26.75-17.63,29.06-5.29,2.11,11.26-18.81,14.26-28.35,7.65h0Z"/>
    <path class="st0" d="M239.12,67.16c-5.12,0-10.3-1.27-13.92-3.79-.06-.04-.11-.08-.16-.12-.92-.68-1.46-1.48-1.61-2.38-.1-.58-.07-1.48.63-2.43,5.96-8.21,17.73-13.94,25.17-12.26,3.84.87,6.39,3.6,7.16,7.71.76,4.05-.9,7.62-4.67,10.06-3.31,2.15-7.92,3.21-12.59,3.21ZM227.41,60.46c5.81,3.92,16.6,4.14,22.33.43,2.52-1.63,3.55-3.76,3.07-6.33-.51-2.7-1.94-4.28-4.37-4.82-5.9-1.33-16.12,3.79-21.22,10.58.02.02.04.03.07.05.04.03.09.06.13.1Z"/>
  </g>
</svg>