<?xml version="1.0" encoding="UTF-8"?>
<svg id="Layer_1" xmlns="http://www.w3.org/2000/svg" version="1.1" viewBox="0 0 220 302">
  <!-- Generator: Adobe Illustrator 29.8.2, SVG Export Plug-In . SVG Version: 2.1.1 Build 3)  -->
  <defs>
    <style>
      .st0 {
        fill: #232323;
      }

      .st1 {
        fill: #fff;
      }

      .st2 {
        fill: #ffdc4a;
      }

      .st3 {
        fill: #ff5601;
      }
    </style>
  </defs>
  <path class="st0" d="M116.87,301.06c-44.17,0-79.99-5.99-79.99-13.39s35.82-13.39,79.99-13.39,79.99,5.99,79.99,13.39-35.82,13.39-79.99,13.39Z"/>
  <g>
    <path class="st1" d="M62.27,223.53c-1.27,31.54,19.05,50.92,19.05,50.92l13.67,3.43-.05-52.18-32.67-2.17Z"/>
    <path class="st0" d="M96.83,280.24l-16.43-4.13-.35-.33c-.85-.82-20.91-20.33-19.62-52.32l.08-1.89,36.27,2.41.05,56.26ZM82.26,272.79l10.89,2.73-.04-48.1-29.05-1.93c-.34,27.05,15.7,44.71,18.21,47.3Z"/>
  </g>
  <g>
    <path class="st1" d="M94.99,288.28v-10.39s-7.99-3.2-13.67-3.43c-5.68-.23-15.33,2.83-14.99,13.84h28.67Z"/>
    <path class="st0" d="M96.83,290.13h-32.29l-.05-1.78c-.14-4.55,1.23-8.28,4.07-11.08,3.7-3.66,9.05-4.8,12.84-4.65,5.93.24,13.94,3.43,14.28,3.56l1.15.46v13.49ZM68.21,286.45h24.94v-7.29c-2.36-.86-7.84-2.7-11.91-2.87-2.88-.12-7.23.75-10.1,3.58-1.72,1.7-2.7,3.9-2.93,6.57Z"/>
  </g>
  <g>
    <path class="st1" d="M126.86,288.28l-4.06-12.29,17.6-1.88c6.24-.63,16.45,4.43,15.57,14.17h-29.11Z"/>
    <path class="st0" d="M157.65,290.12h-32.12l-5.19-15.72,19.87-2.12c4.56-.45,9.98,1.57,13.49,5.05,3.07,3.04,4.49,6.88,4.1,11.12l-.15,1.67ZM128.18,286.44h25.98c-.2-3.03-1.71-5.17-3.05-6.5-3.05-3.02-7.6-4.3-10.52-4l-15.33,1.63,2.93,8.86Z"/>
  </g>
  <g>
    <path class="st1" d="M107,225.89l15.79,50.11,17.6-1.89s10.53-41.36,1.48-50.91c-6.65-7.01-34.87,2.69-34.87,2.69Z"/>
    <path class="st0" d="M121.49,277.99l-16.78-53.26,1.7-.58c.29-.1,7.27-2.48,15.19-4.04,11.28-2.21,18.35-1.62,21.62,1.82,4.15,4.38,5.21,14.65,3.14,30.54-1.5,11.51-4.15,21.99-4.17,22.09l-.32,1.24-20.37,2.18ZM109.29,227.06l14.8,46.95,14.83-1.59c2.95-12.1,8.23-40.98,1.62-47.95-4.02-4.24-20.59-.84-31.24,2.59Z"/>
  </g>
  <path class="st3" d="M84.53,74.46C63.14,20.4,120.02-10.79,155.85,3.43c0,0-36.83,33.93-7.95,62.39,1.47-20.31,21.67-27.94,40.52-21.03,0,0-24.18,15.38,9.9,63.21,3.75,5.25,31.59,42.89,17.07,85.83-12.75,37.68-43.28,56.43-86.27,59.04-47.91,2.92-114.45-9.43-126.83-72.57-18.55-94.53,82.25-105.86,82.25-105.86h0Z"/>
  <path class="st2" d="M154.44,147.62c-24.8-2.83-47.24,13.29-50.13,36.02-2.89,22.73,14.88,43.46,39.67,46.29,24.8,2.83,47.24-13.29,50.13-36.02,2.89-22.73-14.88-43.45-39.67-46.29Z"/>
  <path class="st0" d="M112.55,141.04c-12.17,0-23.91-5.26-29.59-14.68l-.04-.07c-7.38,3-17.29,2.88-26.87-3.54-9.23-6.19-14.89-14.84-16.39-25.02-1.85-12.56,2.99-23.73,7.71-29.47.64-.78,1.8-.9,2.59-.26.79.64.9,1.8.26,2.59-4.24,5.17-8.59,15.23-6.91,26.6,1.34,9.12,6.46,16.9,14.81,22.5,6.18,4.14,15.41,6.43,23.3,3.28-1.17-3.58-.86-7.18.97-10.08,1.6-2.54,4.06-3.99,6.4-3.75,1.91.19,3.46,1.47,4.26,3.54,1.23,3.21-.48,7.17-4.46,10.34-.73.58-1.51,1.12-2.34,1.62,7.96,12.9,28.95,16.79,44.2,8.15.89-.5,2.01-.19,2.51.69.5.88.19,2.01-.69,2.51-6.05,3.43-12.93,5.05-19.69,5.05ZM88.29,112.8c-.75,0-1.91.62-2.81,2.06-1.14,1.8-1.38,4.06-.75,6.4.53-.34,1.04-.71,1.55-1.11,2.6-2.07,3.93-4.54,3.32-6.15-.29-.74-.68-1.15-1.18-1.19-.04,0-.08,0-.12,0Z"/>
  <path class="st0" d="M91.57,159.04c-.19,0-.37-.03-.56-.09-.97-.31-1.5-1.34-1.19-2.31,1.43-4.49.42-7.99-2.86-9.85-3.25-1.84-6.34-.27-7.97,2.1-.74,1.07-1.01,2.28-1.01,2.29-.22.99-1.19,1.62-2.18,1.41-.99-.21-1.62-1.18-1.42-2.17.04-.19.43-1.95,1.58-3.61,3.04-4.44,8.32-5.76,12.81-3.21,4.81,2.73,6.51,8.02,4.55,14.17-.25.78-.97,1.28-1.75,1.28Z"/>
  <path class="st0" d="M51.64,146.86c-.14,0-.27-.02-.41-.05-.99-.23-1.61-1.21-1.38-2.2.38-1.66.26-3.06-.37-4.02-1.35-2.11-4.72-2.79-7.35-1.5-1.82.9-2.84,2.33-3.43,4.81-.23.99-1.23,1.6-2.21,1.36-.99-.23-1.6-1.23-1.36-2.21.53-2.24,1.67-5.43,5.38-7.26,4.3-2.12,9.72-.86,12.07,2.81,1.17,1.82,1.47,4.18.86,6.83-.2.85-.95,1.43-1.79,1.43Z"/>
  <path class="st0" d="M64.95,179.95c-3.45,0-7.05-.56-10.15-1.52-6.98-2.14-15.09-7.98-16.03-13.25-.39-2.18.41-4.15,2.25-5.55,3.26-2.28,6.47-.93,9.87.51,2.04.86,4.36,1.84,7.03,2.21h0c2,.28,4.08.4,6.1.51,6.83.4,13.9.8,14.48,7.83.22,2.53-.71,4.72-2.69,6.32-2.56,2.07-6.59,2.93-10.85,2.93ZM44.83,162.1c-.61,0-1.14.16-1.64.51-.69.52-.94,1.11-.8,1.93.61,3.4,7.16,8.44,13.49,10.38,6.66,2.04,14.56,1.7,17.61-.76,1.03-.83,1.45-1.83,1.34-3.15-.29-3.49-3.58-4.04-11.02-4.47-2.09-.12-4.25-.25-6.4-.54h0c-3.14-.44-5.69-1.52-7.94-2.46-2.04-.86-3.48-1.43-4.63-1.43Z"/>
</svg>