<?xml version="1.0" encoding="UTF-8"?>
<svg id="Layer_1" xmlns="http://www.w3.org/2000/svg" version="1.1" viewBox="0 0 222 313">
  <!-- Generator: Adobe Illustrator 29.8.2, SVG Export Plug-In . SVG Version: 2.1.1 Build 3)  -->
  <defs>
    <style>
      .st0 {
        fill: #232323;
      }

      .st1 {
        fill: #fff;
      }

      .st2 {
        fill: #ffdc4a;
      }

      .st3 {
        fill: #ff5601;
      }
    </style>
  </defs>
  <path class="st0" d="M99.47,312.74c44.18,0,79.99-5.99,79.99-13.39s-35.82-13.39-79.99-13.39-79.99,5.99-79.99,13.39,35.82,13.39,79.99,13.39Z"/>
  <g>
    <path class="st1" d="M154.09,235.21c1.27,31.54-19.05,50.92-19.05,50.92l-13.67,3.43.05-52.18,32.67-2.17Z"/>
    <path class="st0" d="M119.52,291.92l.05-56.26,36.27-2.41.08,1.89c1.29,32-18.77,51.51-19.62,52.32l-.35.33-16.43,4.13ZM123.25,239.1l-.05,48.1,10.89-2.74c2.51-2.59,18.55-20.25,18.21-47.3l-29.05,1.93Z"/>
  </g>
  <g>
    <path class="st1" d="M121.36,299.96v-10.39s7.99-3.2,13.67-3.43c5.68-.23,15.32,2.83,14.99,13.84h-28.67Z"/>
    <path class="st0" d="M151.82,301.8h-32.29v-13.48l1.16-.46c.34-.14,8.35-3.32,14.28-3.57,3.79-.15,9.13.99,12.84,4.65,2.84,2.81,4.21,6.54,4.07,11.08l-.05,1.78ZM123.2,298.13h24.94c-.24-2.67-1.22-4.88-2.93-6.57-2.87-2.84-7.23-3.7-10.1-3.59-4.07.17-9.55,2.01-11.91,2.87v7.29Z"/>
  </g>
  <g>
    <path class="st1" d="M89.5,299.95l4.06-12.29-17.6-1.88c-6.24-.63-16.45,4.43-15.57,14.17h29.11Z"/>
    <path class="st0" d="M90.83,301.79h-32.12l-.15-1.67c-.38-4.24,1.03-8.08,4.1-11.12,3.52-3.48,8.93-5.5,13.49-5.05l19.88,2.12-5.19,15.71ZM62.19,298.12h25.98l2.93-8.86-15.34-1.64c-2.92-.3-7.47.98-10.52,4-1.34,1.33-2.85,3.47-3.05,6.5Z"/>
  </g>
  <g>
    <path class="st1" d="M109.36,237.57l-15.79,50.11-17.6-1.89s-10.53-41.36-1.48-50.91c6.65-7.01,34.87,2.69,34.87,2.69Z"/>
    <path class="st0" d="M94.87,289.66l-20.37-2.18-.32-1.24c-.03-.1-2.68-10.58-4.17-22.09-2.07-15.88-1.01-26.16,3.14-30.54,3.26-3.44,10.33-4.04,21.62-1.82,7.92,1.55,14.89,3.94,15.19,4.04l1.7.58-16.78,53.26ZM77.44,284.1l14.83,1.59,14.79-46.95c-10.64-3.43-27.22-6.84-31.24-2.59-6.61,6.97-1.33,35.85,1.62,47.95Z"/>
  </g>
  <path class="st3" d="M135.02,78.53C156.4,21.52,99.52-11.38,63.69,3.62c0,0,36.83,35.78,7.95,65.81-1.47-21.42-21.67-29.46-40.52-22.18,0,0,24.18,16.23-9.9,66.66-3.75,5.55-31.59,45.24-17.07,90.52,12.75,39.74,43.28,59.51,86.27,62.27,17.42,1.12,34.77-1.18,53.44-8.05,0,0,13.87,9.81,36.42,1.33,21.67-8.14,25.12-40.72,25.12-40.72,4.97-9.11,8.8-17.87,11.86-29.09,26.75-97.82-82.25-111.64-82.25-111.64h0Z"/>
  <path class="st2" d="M75.56,242.48c24.8-2.99,42.56-24.84,39.67-48.81-2.89-23.97-25.33-40.98-50.13-37.99-24.8,2.99-42.56,24.84-39.67,48.81,2.89,23.97,25.33,40.98,50.13,37.99Z"/>
  <path class="st0" d="M218.88,125.73c-.42,0-.85-.15-1.2-.44-36.58-31.38-104.97-31.96-120.48-18.88-.78.65-1.94.56-2.59-.22-.65-.78-.56-1.94.22-2.59,16.69-14.08,86.68-14.19,125.25,18.9.77.66.86,1.82.2,2.59-.36.42-.88.64-1.4.64Z"/>
  <path class="st0" d="M160.47,139.75c19.17-2.2,33.2-16.91,40.6,15.6,7.4,32.51-2.89,99.16-36.55,99.22-26.74.04-37.77-27.52-41.57-59.67-8.17-69.26,22.49-53.42,37.52-55.14h0Z"/>
  <path class="st0" d="M111.58,139.88c-.31,0-.62-.08-.91-.24-.88-.5-1.19-1.62-.69-2.51,7.21-12.72,46.48-54.3,90.26-43.59.99.24,1.59,1.24,1.35,2.22-.24.99-1.25,1.59-2.22,1.35-22.66-5.54-43.34,4.02-56.7,13.01-16.06,10.81-26.8,24.09-29.49,28.83-.34.6-.96.93-1.6.93Z"/>
</svg>