<?xml version="1.0" encoding="UTF-8"?>
<svg id="Layer_1" xmlns="http://www.w3.org/2000/svg" version="1.1" viewBox="0 0 219 322">
  <!-- Generator: Adobe Illustrator 29.8.2, SVG Export Plug-In . SVG Version: 2.1.1 Build 3)  -->
  <defs>
    <style>
      .st0 {
        fill: #232323;
      }

      .st1 {
        fill: #fff;
      }

      .st2 {
        fill: #ffdc4a;
      }

      .st3 {
        fill: #ff5601;
      }
    </style>
  </defs>
  <path class="st0" d="M116.23,321.73c44.17,0,79.99-6.32,79.99-14.12s-35.82-14.12-79.99-14.12-79.99,6.33-79.99,14.12,35.82,14.12,79.99,14.12Z"/>
  <g>
    <path class="st1" d="M131.07,305.73l-1.96-12.97,20.37-1.98c6.24-.67,16.45,4.67,15.57,14.95h-33.98Z"/>
    <path class="st0" d="M166.73,307.57h-37.25l-2.48-16.45,22.29-2.16c4.34-.47,9.63,1.52,13.14,4.96,2.3,2.25,4.94,6.16,4.44,11.98l-.14,1.68ZM132.65,303.9h30.59c-.18-3.47-1.87-5.88-3.38-7.35-3.18-3.11-7.52-4.21-10.19-3.93l-18.46,1.79,1.43,9.49Z"/>
  </g>
  <g>
    <path class="st1" d="M119.68,240.59l9.42,52.18,20.37-1.98s14.14-42.96,5.09-53.03c-6.65-7.4-34.87,2.83-34.87,2.83Z"/>
    <path class="st0" d="M127.59,294.77l-10-55.38,1.46-.53c3.01-1.09,29.61-10.41,36.87-2.33,4.16,4.63,4.59,15.36,1.28,31.88-2.4,11.97-5.96,22.84-5.99,22.95l-.38,1.14-23.25,2.27ZM121.77,241.8l8.84,48.97,17.48-1.7c3.98-12.48,11.72-42.71,5.1-50.09-4.04-4.5-20.8-.82-31.42,2.82Z"/>
  </g>
  <path class="st1" d="M64.65,290.98l6.36-26.63-20.49.33s-19.3,2.34-21.31,7.87"/>
  <path class="st0" d="M64.65,292.81c-.14,0-.28-.02-.43-.05-.98-.23-1.58-1.22-1.35-2.2l5.82-24.35-18.14.29c-.08,0-.16,0-.24-.01-.17-.02-16.73-1.8-19.36,6.61-.3.96-1.32,1.5-2.29,1.2-.96-.3-1.5-1.33-1.19-2.29,3.42-10.93,21.31-9.35,23.13-9.15l20.38-.33c.57-.01,1.1.24,1.45.68.35.44.48,1.02.35,1.57l-6.36,26.63c-.2.84-.95,1.4-1.77,1.4Z"/>
  <g>
    <path class="st1" d="M44.51,286.31c-9.74-5.21-16.6-11.36-15.33-13.75,1.27-2.38,10.2-.09,19.94,5.13,9.74,5.21,16.6,11.37,15.33,13.75-1.27,2.38-10.2.09-19.94-5.13Z"/>
    <path class="st0" d="M61.9,294.21c-1.29,0-2.85-.24-4.7-.71-3.9-1-8.71-2.98-13.55-5.57h0c-1.97-1.05-19.15-10.47-16.07-16.22,1.1-2.05,3.99-2.44,8.86-1.19,3.9,1,8.71,2.98,13.55,5.57,1.97,1.05,19.15,10.46,16.07,16.22-.68,1.27-2.05,1.91-4.16,1.91ZM45.37,284.71c8.97,4.8,15.6,6.25,17.34,5.81-.6-1.69-5.47-6.41-14.45-11.21-8.98-4.81-15.6-6.24-17.34-5.81.6,1.69,5.47,6.41,14.45,11.21h0Z"/>
  </g>
  <g>
    <path class="st1" d="M109.17,228.45l-40.64,46.32s-8.55-8.97-18.04-10.08c0,0,2.11-36.57,26.15-50.63l32.49,14.37.05.02Z"/>
    <path class="st0" d="M68.52,276.59c-.5,0-.97-.2-1.32-.56-.08-.08-8.23-8.51-16.93-9.53-.96-.11-1.67-.95-1.61-1.92.02-.38.58-9.5,4.15-20.5,4.76-14.69,12.68-25.62,22.9-31.6.51-.29,1.12-.33,1.66-.09l32.49,14.37c.53.24.94.72,1.07,1.29.12.57,0,1.17-.39,1.61l-40.64,46.32c-.34.38-.82.61-1.33.62-.01,0-.03,0-.04,0ZM52.45,263.16c7.06,1.47,13.26,6.5,15.96,8.97l37.74-43.01-29.4-13c-19.38,12.02-23.55,40-24.3,47.05Z"/>
  </g>
  <path class="st3" d="M186.79,102.8c51.54-32.43,26.18-93.05-11.4-102.8,0,0,7.65,50.77-33.52,57.18,11.8-17.93.59-36.57-18.82-42.18,0,0,9.42,27.56-48.24,47.07-6.33,2.14-52.52,16.87-68.38,61.71-13.91,39.34-5.07,75.19,25.01,106.02,26.32,26.97,112.28,44.29,153.23,11.67,73.94-58.91,2.13-138.66,2.13-138.66h0Z"/>
  <path class="st2" d="M102.14,192.43c2.33-18.81-11.55-36.01-31.01-38.42-19.46-2.41-37.12,10.89-39.44,29.7-2.33,18.81,11.55,36.01,31.01,38.42,19.46,2.41,37.12-10.89,39.44-29.7Z"/>
  <path class="st0" d="M140.17,160.99c.19-4.43-1.57-8.1-3.94-8.2-2.37-.1-4.44,3.41-4.63,7.84-.19,4.43,1.57,8.1,3.94,8.2,2.37.1,4.44-3.41,4.63-7.84Z"/>
  <path class="st0" d="M166.62,161.17c.19-4.43-1.57-8.1-3.94-8.2-2.37-.1-4.44,3.41-4.63,7.84-.19,4.43,1.57,8.1,3.94,8.2,2.37.1,4.44-3.41,4.63-7.84Z"/>
  <path class="st0" d="M151.52,157.04c-21.7,0-44.09-4.27-63.57-14.43-.9-.47-1.25-1.58-.78-2.48.47-.9,1.58-1.25,2.48-.78,40.7,21.22,94.51,16.06,126.63-.01.91-.45,2.01-.09,2.47.82s.09,2.01-.82,2.47c-17.6,8.8-41.55,14.42-66.41,14.42Z"/>
  <path class="st0" d="M151.49,196.42c-.29,0-.58-.07-.86-.21l-33.37-17.64c-.9-.47-1.24-1.59-.77-2.49s1.58-1.24,2.49-.77l33.37,17.64c.9.47,1.24,1.59.77,2.49-.33.62-.97.98-1.63.98Z"/>
</svg>