<?xml version="1.0" encoding="UTF-8"?>
<svg id="Layer_1" xmlns="http://www.w3.org/2000/svg" version="1.1" viewBox="0 0 306 747">
  <!-- Generator: Adobe Illustrator 29.8.2, SVG Export Plug-In . SVG Version: 2.1.1 Build 3)  -->
  <defs>
    <style>
      .st0 {
        fill: #232323;
      }

      .st1 {
        fill: #fff;
      }

      .st2 {
        fill: #ffdc4a;
      }

      .st3 {
        fill: #ff5601;
      }
    </style>
  </defs>
  <path class="st0" d="M137.69,746.91c44.18,0,79.99-6.32,79.99-14.12s-35.82-14.12-79.99-14.12-79.99,6.32-79.99,14.12,35.82,14.12,79.99,14.12Z"/>
  <g>
    <path class="st1" d="M109.07,669.6c-10.05,7.18-10.82,46.68-10.82,46.68l25.46,4.19,13.98-47.74-28.63-3.13h0Z"/>
    <path class="st0" d="M125.02,722.55l-28.64-4.72.03-1.59c.08-4.14,1.09-40.64,11.59-48.15l2.91-2.08v1.94l29.17,3.19-15.06,51.4ZM100.13,714.73l22.28,3.67,12.91-44.07-25.7-2.81c-6.86,6.08-9.11,31.74-9.48,43.21Z"/>
  </g>
  <g>
    <path class="st1" d="M120.44,732.54l3.28-12.07s-13.95-6.14-25.46-4.19c-6.81,1.15-13.19,5.89-13.19,16.26h35.38Z"/>
    <path class="st0" d="M121.85,734.38h-38.62v-1.84c0-9.76,5.51-16.52,14.73-18.07,11.92-2.01,25.92,4.06,26.51,4.32l1.45.64-4.06,14.95ZM86.98,730.7h32.06l2.48-9.13c-3.79-1.44-14.23-4.95-22.95-3.48-3.31.56-10.75,2.89-11.58,12.61Z"/>
  </g>
  <g>
    <path class="st1" d="M178.85,660.26c11.37,22.55-.18,55.63-.18,55.63l-23.59,4.58-13.18-48.15,36.96-12.07Z"/>
    <path class="st0" d="M153.76,722.6l-14.1-51.48,40.12-13.1.71,1.41c6.08,12.07,5.72,26.96,4.35,37.34-1.47,11.15-4.32,19.38-4.44,19.72l-.35,1-26.3,5.11ZM144.13,673.53l12.27,44.81,20.85-4.05c1.72-5.48,9.37-32.42.63-51.78l-33.75,11.02Z"/>
  </g>
  <g>
    <path class="st1" d="M158.43,732.13l-3.35-11.67s17.03-4.29,23.59-4.58c6.24-.27,19.1,6.18,15.87,16.24h-36.11Z"/>
    <path class="st0" d="M160.27,745.2l-7.48-26.06,1.84-.46c.7-.18,17.29-4.34,23.95-4.64,4.62-.21,11.91,2.67,15.72,7.67,2.53,3.32,3.22,7.11,1.98,10.97l-.41,1.28h-35.61v11.24ZM159.81,730.28h33.29c.37-2.23-.2-4.36-1.71-6.34-2.95-3.87-9.05-6.35-12.64-6.23-5.05.22-16.82,2.97-21.37,4.08l2.43,8.49Z"/>
  </g>
  <path class="st3" d="M71.26,164.2C22.88,29.32,154.99,0,154.99,0c-55.7,64.69-31.65,101.49,17.51,166.17,16.06-51.24,57.04-51.25,57.04-51.25,0,0-44.37,39.83,23.73,167.76,2.41,4.23,4.73,8.45,6.95,12.66,4.15,10.65,0,0,.07.12,69.2,176.04,47.77,249.44,11.7,323.54-32.01,65.76-93.79,80.73-139.63,77.58-75.08-5.19-124.67-56.09-130.46-112.42-20.17-196.23,127.75-257.19,69.37-419.96h-.01Z"/>
  <path class="st2" d="M191.84,639.4c-23.16-2.79-39.75-23.21-37.05-45.6,2.7-22.39,23.66-38.28,46.82-35.49,23.16,2.79,39.75,23.21,37.05,45.6-2.7,22.39-23.66,38.28-46.82,35.49Z"/>
  <path class="st0" d="M105.8,539.4c-.15-4.43,1.65-8.09,4.02-8.17,2.37-.08,4.41,3.45,4.56,7.88.15,4.43-1.65,8.09-4.02,8.17-2.37.08-4.41-3.45-4.56-7.88Z"/>
  <path class="st0" d="M63.69,537.32c-.15-4.43,1.65-8.09,4.02-8.17,2.37-.08,4.41,3.45,4.56,7.88.15,4.43-1.65,8.09-4.02,8.17-2.37.08-4.41-3.45-4.56-7.88Z"/>
  <path class="st0" d="M120.96,642.16c-.94,0-1.74-.73-1.8-1.69-4.61-67.17-23.28-81.3-38.17-81.3h-.07c-5.49.02-10.31,2.13-14.31,6.27-9.89,10.24-15,33.21-14.04,63.03.03,1-.75,1.83-1.75,1.87-1.03.04-1.84-.75-1.87-1.75-1.36-42.15,8.85-59.23,15.06-65.66,4.71-4.88,10.39-7.36,16.9-7.38h.08c23.54,0,37.98,29.27,41.78,84.67.07,1-.68,1.86-1.68,1.93-.04,0-.08,0-.13,0Z"/>
  <path class="st0" d="M171.99,537.17s-.06,0-.09,0l-161.72-8.18c-1-.05-1.77-.9-1.72-1.9.05-1,.9-1.75,1.9-1.72l161.72,8.18c1,.05,1.77.9,1.72,1.9-.05.97-.85,1.72-1.81,1.72Z"/>
</svg>