<?xml version="1.0" encoding="UTF-8"?>
<svg id="Layer_1" xmlns="http://www.w3.org/2000/svg" version="1.1" viewBox="0 0 322 239">
  <!-- Generator: Adobe Illustrator 29.8.2, SVG Export Plug-In . SVG Version: 2.1.1 Build 3)  -->
  <defs>
    <style>
      .st0 {
        fill: #232323;
      }

      .st1 {
        fill: #fff;
      }

      .st2 {
        fill: #ffdc4a;
      }

      .st3 {
        fill: #ff5601;
      }
    </style>
  </defs>
  <path class="st0" d="M160.99,238.17c88.91,0,160.99-14.7,160.99-32.83s-72.08-32.83-160.99-32.83S0,187.21,0,205.34s72.08,32.83,160.99,32.83Z"/>
  <g>
    <path class="st1" d="M55.78,204.37c-9.33,7.87-25.8,9.41-26.7,3.94-.71-4.36,14.53-18.55,18.11-22.21l7.75-6.86h7.43v24.7l-6.6.43Z"/>
    <path class="st0" d="M36.12,213.39c-1.97,0-3.72-.25-5.1-.76-2.87-1.06-3.58-2.97-3.75-4.01-.64-3.93,5.58-10.95,16.54-21.74.86-.85,1.58-1.55,2.07-2.05l.1-.09,8.28-7.32h9.97v28.27l-7.73.5c-5.89,4.74-14.2,7.22-20.37,7.22ZM48.45,187.43c-.5.51-1.21,1.21-2.07,2.05-13.07,12.87-15.64,17.18-15.49,18.54.09.56.81.94,1.4,1.15,4.14,1.53,15.14-.17,22.3-6.21l.46-.39,5.48-.36v-21.14h-4.9l-7.18,6.35Z"/>
  </g>
  <g>
    <path class="st1" d="M161.21,187.05l-102.52-4-3.84,21.3c6.64,3.49,45.4,14.32,70.89,5.94l35.48-3.43v-19.8h-.01Z"/>
    <path class="st0" d="M103.35,215.22c-21.75,0-44.12-6.49-49.35-9.24l-1.19-.63,4.36-24.2,104.81,4.09,1.08,1.03v22.26l-36.94,3.57c-6.92,2.25-14.81,3.12-22.78,3.12ZM56.91,203.29c9.28,4,44.65,13.01,68.26,5.25l.4-.08,33.82-3.27v-16.37l-99.16-3.87-3.31,18.34Z"/>
  </g>
  <g>
    <path class="st1" d="M58.67,162.04h-13.45s-2.29-.59-9.7,9.12c-7.42,9.71-16.55,18.85-8.84,19.7,11.99,1.33,24.22-6.69,27.72-9.04l4.28-19.77h0Z"/>
    <path class="st0" d="M29.4,192.85c-.99,0-1.97-.05-2.93-.16-2.22-.25-3.65-1.13-4.27-2.62-1.42-3.43,2.5-8.31,7.92-15.05,1.3-1.62,2.65-3.29,3.93-4.98,5.15-6.75,8.96-10.06,11.28-9.84h14.12l1.22,1.29-4.64,21.45-.62.41c-9.3,6.25-18.23,9.5-26.02,9.5ZM25.6,188.67s.24.25,1.27.36c7.41.83,16.35-2.05,25.88-8.33l3.64-16.83h-11.18c-.4.14-2.73,1.19-8.23,8.39-1.32,1.72-2.68,3.41-3.99,5.05-2.98,3.71-7.97,9.92-7.39,11.35h0Z"/>
  </g>
  <g>
    <path class="st1" d="M161.21,162.04H58.67l-4.51,19.61c12.92,5.39,26.54,10.83,55.18,8.03l51.87-2.65v-25h0Z"/>
    <path class="st0" d="M94.75,192.28c-19.88,0-31.14-4.7-41.3-8.93l-1.43-.6,5.19-22.55h104.01v1.84h1.83v26.75l-53.62,2.74c-5.37.52-10.24.76-14.68.76ZM56.29,180.55c11.69,4.85,25.35,9.99,52.86,7.3l50.21-2.56v-21.41H60.13l-3.84,16.67Z"/>
  </g>
  <path class="st3" d="M218.66,185.73c32.72,51.35,93.21,25.65,102.73-12,0,0-50.73,7.94-57.38-33.19,18,11.69,36.57.38,42.07-19.06,0,0-27.5,9.58-47.34-47.97-2.18-6.32-17.17-52.43-62.1-68.03-39.43-13.69-73.58-1.17-101.61,31.54-31.24,36.45-47.11,105.98-15.04,147.37,62.12,80.16,138.67,1.33,138.67,1.33h0Z"/>
  <path class="st2" d="M162.32,144.21c14.04-20.66,9.23-48.41-10.74-61.98-19.97-13.57-47.54-7.83-61.58,12.83-14.04,20.66-9.23,48.41,10.74,61.98,19.97,13.57,47.54,7.83,61.58-12.83Z"/>
  <path class="st0" d="M161.55,219.9c-1.16,0-2.2-.45-3.01-1.29-2.06-2.15-1.99-6.29-1.96-7.1l-.07-13.92c-2.41-1.74-8.43-7.43-8.43-20.74,0-17.87,4.88-28.54,13.05-28.54,2.76,0,4.83.79,6.14,2.34,2.54,3,1.7,8,.72,13.8-.43,2.58-.88,5.25-1.08,7.94-.44,6.11.92,8.57,2.48,11.42.77,1.39,1.56,2.83,2.19,4.73,1.65,4.96-1.7,8.64-4.34,10.35.02,2.24.05,7.54,0,11.06-.06,3.72-.17,9.94-5.68,9.94ZM161.13,151.93c-5.73,0-9.43,9.78-9.43,24.92,0,13.96,7.16,17.99,7.46,18.15l.94.51.02,1.08.07,14.98c-.05,1.42.22,3.76.96,4.53.13.13.22.17.4.17,1.32,0,1.97-.96,2.06-6.39.08-4.5,0-11.95,0-12.03v-1.14s1.01-.5,1.01-.5c.19-.1,4.87-2.51,3.53-6.54-.53-1.59-1.21-2.83-1.93-4.13-1.69-3.07-3.43-6.25-2.92-13.42.21-2.86.67-5.62,1.12-8.28.79-4.7,1.54-9.14.08-10.86-.6-.71-1.7-1.06-3.37-1.06Z"/>
  <path class="st0" d="M191.28,190.98c-.91,0-1.69-.68-1.8-1.61l-8.79-77.59c-.11-.99.6-1.89,1.59-2,1.01-.11,1.89.6,2,1.59l8.79,77.59c.11.99-.6,1.89-1.59,2-.07,0-.14.01-.21.01Z"/>
  <path class="st0" d="M200.38,187.64c-.91,0-1.69-.68-1.8-1.61l-8.79-77.6c-.11-.99.6-1.89,1.59-2,1.01-.11,1.89.6,2,1.59l8.79,77.6c.11.99-.6,1.89-1.59,2-.07,0-.14.01-.21.01Z"/>
  <path class="st0" d="M208.76,189.27c-.94,0-1.73-.72-1.8-1.67l-5.59-74.32c-.08-1,.67-1.87,1.67-1.94.99-.07,1.87.67,1.94,1.67l5.59,74.32c.08,1-.67,1.87-1.67,1.94-.05,0-.09,0-.14,0Z"/>
</svg>