<?xml version="1.0" encoding="UTF-8"?>
<svg id="Layer_1" xmlns="http://www.w3.org/2000/svg" version="1.1" viewBox="0 0 265 304">
  <!-- Generator: Adobe Illustrator 29.8.2, SVG Export Plug-In . SVG Version: 2.1.1 Build 3)  -->
  <defs>
    <style>
      .st0 {
        fill: #232323;
      }

      .st1 {
        fill: #fff;
      }

      .st2 {
        fill: #ffdc4a;
      }

      .st3 {
        fill: #ff5601;
      }
    </style>
  </defs>
  <path class="st0" d="M106.83,303.02c-44.18,0-79.99-6.32-79.99-14.12s35.82-14.12,79.99-14.12,79.99,6.33,79.99,14.12-35.82,14.12-79.99,14.12Z"/>
  <g>
    <path class="st1" d="M78.46,221.25c-1.27,33.27,19.05,53.7,19.05,53.7l13.67,3.63-.05-55.04-32.67-2.29Z"/>
    <path class="st0" d="M113.03,280.97l-16.46-4.37-.35-.35c-.85-.86-20.88-21.39-19.59-55.07l.07-1.9,36.28,2.54.05,59.15ZM98.49,273.31l10.85,2.88-.04-50.94-29.05-2.03c-.38,28.66,15.73,47.35,18.24,50.09Z"/>
  </g>
  <g>
    <path class="st1" d="M111.18,289.53v-10.97s-7.99-3.38-13.67-3.63c-5.68-.25-15.33,2.99-14.99,14.59h28.67Z"/>
    <path class="st0" d="M111.19,291.36h-30.45l-.05-1.79c-.14-4.84,1.36-8.94,4.33-11.87,3.71-3.65,8.93-4.79,12.59-4.61,5.94.26,13.97,3.63,14.3,3.77l1.12.48v12.18h-1.84v1.83ZM84.4,287.68h24.95v-7.87c-2.34-.9-7.84-2.86-11.91-3.04-2.75-.11-6.98.74-9.85,3.56-1.89,1.86-2.96,4.33-3.19,7.35Z"/>
  </g>
  <g>
    <path class="st1" d="M128.42,289.53l-4.06-12.96,17.6-1.98c6.24-.67,16.45,4.67,15.57,14.94h-29.11Z"/>
    <path class="st0" d="M159.22,291.37h-32.15l-5.13-16.38,19.82-2.24c4.38-.47,9.66,1.52,13.17,4.95,2.3,2.25,4.94,6.16,4.44,11.98l-.14,1.68ZM129.77,287.69h25.96c-.18-3.47-1.87-5.88-3.38-7.35-3.18-3.11-7.52-4.22-10.19-3.93l-15.38,1.73,2.99,9.54Z"/>
  </g>
  <g>
    <path class="st1" d="M108.56,223.74l15.79,52.85,17.6-1.99s10.53-43.62,1.48-53.69c-6.65-7.4-34.87,2.83-34.87,2.83Z"/>
    <path class="st0" d="M123.03,278.59l-16.73-55.99,1.63-.59c3.01-1.09,29.6-10.41,36.87-2.33,4.12,4.59,5.17,15.38,3.11,32.08-1.5,12.13-4.14,23.17-4.17,23.28l-.3,1.25-20.41,2.31ZM110.82,224.89l14.85,49.7,14.79-1.68c2.95-12.75,8.26-43.37,1.6-50.78-4.02-4.48-20.62-.86-31.24,2.76Z"/>
  </g>
  <path class="st3" d="M212.75,109.85c62.48-10.42,62.5-78.78,30.34-103.22,0,0-13.05,51.79-55.12,41.41,18.53-12.46,15.26-34.85-1.12-48.04,0,0-2.03,30.22-65.18,25.79-6.94-.49-57.18-4.9-90.4,31.75C2.11,89.7-10.65,137.79,10.51,189.25c22.28,54.21,97.51,72.9,149.98,58.3,100.32-27.91,52.27-137.72,52.27-137.72h0Z"/>
  <path class="st2" d="M98.53,181.74c10.54-15.31,6.26-36.56-9.58-47.47-15.83-10.91-37.22-7.34-47.76,7.97-10.54,15.31-6.26,36.56,9.58,47.47,15.83,10.91,37.22,7.34,47.76-7.97Z"/>
  <path class="st0" d="M155.76,163.44c-2.27,0-4.71-.15-7.33-.49-19.01-2.5-29.61-12.05-35.16-19.62-6.58-8.98-9.49-20.08-7.78-29.68.17-.98,1.11-1.64,2.1-1.47.98.17,1.64,1.11,1.47,2.1-1.54,8.65,1.13,18.71,7.14,26.91,5.13,7,14.96,15.84,32.71,18.17,10.95,1.43,19.27-.59,24.83-3.61-4.23-3.51-4.62-7.14-4.42-9.14.33-3.28,2.57-6.19,5.71-7.41,2.87-1.11,5.94-.54,8.22,1.51,2.54,2.31,3.08,5.81,1.44,9.35-.9,1.95-2.39,3.82-4.33,5.5,6.92,3.05,16.63,2.96,26.7-.36,10.74-3.54,19.52-9.95,21.84-15.95.36-.93,1.41-1.39,2.34-1.03.93.36,1.4,1.41,1.03,2.34-2.74,7.06-12.19,14.16-24.09,18.08-11.96,3.94-23.2,3.68-31.13-.66-1.43.89-3.01,1.69-4.7,2.39-3.67,1.51-9.23,3.06-16.59,3.06ZM177.99,142.26c-.67,0-1.25.16-1.66.32-1.85.72-3.22,2.48-3.41,4.39-.23,2.32,1.2,4.67,4.05,6.7,2.2-1.69,3.68-3.5,4.43-5.12.69-1.48,1.14-3.58-.58-5.15-.97-.87-1.97-1.14-2.83-1.14Z"/>
  <path class="st0" d="M140.18,188.2c-2.21,0-4.55-.63-6.84-1.92-4.92-2.75-9.19-8.48-7.44-13.67.32-.95,1.34-1.45,2.29-1.13.95.32,1.46,1.35,1.13,2.29-.94,2.78,1.71,7.06,5.78,9.35,2,1.12,7.08,3.23,10.94-1.39.64-.77,1.78-.87,2.55-.23.77.64.87,1.78.23,2.55-2.29,2.75-5.33,4.15-8.64,4.15Z"/>
  <path class="st0" d="M182.86,191.06c-5.12,0-9.21-2.67-11.01-7.38-.36-.93.11-1.98,1.04-2.34.93-.36,1.98.11,2.34,1.04,2.16,5.63,7.66,5.26,9.92,4.84,4.59-.85,8.47-4.04,8.47-6.97,0-1,.81-1.81,1.81-1.81s1.81.81,1.81,1.81c0,5.46-5.89,9.51-11.43,10.53-1.01.19-1.99.28-2.94.28Z"/>
  <path class="st0" d="M163.11,224.07c-1.17,0-2.27-.29-3.26-.86-1.92-1.11-3.16-3.21-3.41-5.78-.23-2.37.39-4.96,1.73-7.3,1.66-2.88,4.17-4.95,6.89-5.68,1.91-.51,3.74-.31,5.29.58,1.92,1.11,3.16,3.21,3.41,5.78.22,2.37-.39,4.96-1.73,7.3-1.66,2.88-4.17,4.95-6.89,5.68-.69.18-1.37.28-2.02.28ZM167.08,207.81c-.4,0-.77.07-1.08.15-1.77.48-3.53,1.97-4.69,3.99-.96,1.66-1.42,3.54-1.27,5.15.08.81.39,2.28,1.61,2.99.88.51,1.87.4,2.54.22,1.77-.47,3.53-1.96,4.69-3.99h0c.96-1.66,1.42-3.54,1.27-5.15-.08-.81-.39-2.28-1.61-2.99-.48-.28-.99-.37-1.46-.37Z"/>
</svg>