<svg width="465" height="106" viewBox="0 0 465 106" fill="none" xmlns="http://www.w3.org/2000/svg">
<path d="M23.9487 86.4163C18.5495 86.4163 11.39 85.3809 4.03829 82.8958L0 60.1749H5.39917L13.6976 77.9108C16.7005 78.9462 20.2358 79.5675 24.1705 79.5675C35.4718 79.5675 41.9065 74.6861 41.9065 67.0089C41.9065 60.8849 37.9717 57.9856 32.3655 55.8112L18.8749 50.6191C10.0587 47.2021 3.52056 41.9064 3.52056 32.0548C3.52056 18.8749 14.7183 10.3694 29.8656 10.3694C34.4364 10.3694 38.8888 11.0942 42.9419 12.3367L45.427 9.23036H49.6872V33.2974H44.288L40.0278 18.4607C37.025 17.5288 33.9039 17.2182 31.0046 17.2182C20.9458 17.2182 14.5112 21.6854 14.5112 29.0372C14.5112 35.0576 18.8749 37.7498 24.5699 39.9243L37.4244 45.0128C46.4477 48.5334 52.7788 53.9325 52.7788 63.8877C52.7788 77.3783 40.7379 86.4015 23.9339 86.4015L23.9487 86.4163ZM135.837 48.8588C135.837 40.2497 131.903 37.7646 125.261 37.7646C121.622 37.7646 117.584 38.1788 112.392 39.3178C112.806 40.7674 113.013 42.4242 113.013 44.3028V78.5321L120.69 79.5675V84.9667H93.8273V79.5675L101.919 78.4285V48.8588C101.919 40.2497 97.9691 37.7646 91.2386 37.7646C87.6145 37.7646 83.5614 38.1788 79.109 39.2143V78.5321L87.2003 79.5675V84.9667H59.3021V79.5675L68.0148 78.5321V42.0248L59.1986 38.6078V35.2943L75.899 29.8951H79.109V36.2262C85.7507 32.2915 92.496 29.481 98.191 29.481C104.315 29.481 109.078 31.759 111.474 36.5369C119.462 32.0696 126.207 29.481 132.213 29.481C140.926 29.481 146.946 34.3624 146.946 44.3176V78.5468L155.659 79.5823V84.9815H127.864V79.5823L135.852 78.5468V48.8736L135.837 48.8588ZM189.163 79.5675V84.9667H160.644V79.5675L169.356 78.5321V42.0248L160.54 38.6078V35.2943L177.241 29.8951H180.451V78.5468L189.163 79.5823V79.5675ZM168.735 20.3246V5.9169H181.397V20.3393H168.735V20.3246ZM214.976 86.4163C206.263 86.4163 200.76 81.8455 200.76 71.3726V37.5575H191.219V32.2619L200.864 31.1229L206.574 16.4934H211.869V30.9158H229.605V37.5575H211.869V69.0946C211.869 75.7363 214.665 77.9108 220.582 77.9108C222.86 77.9108 227.017 77.4966 230.848 76.4611V82.171C225.449 84.5525 220.064 86.4311 214.976 86.4311V86.4163ZM280.52 49.4801C280.52 40.871 276.26 38.1788 269.012 38.1788C265.062 38.1788 260.713 38.8001 255.832 40.0426V78.5321L264.338 79.5675V84.9667H236.01V79.5675L244.723 78.5321V12.2332L235.907 8.71264V5.50272L252.607 0H255.817V36.6108C262.977 32.3507 269.929 29.4514 276.142 29.4514C285.372 29.4514 291.6 34.5399 291.6 44.5986V78.5173L300.312 79.5527V84.9519H272.103V79.5527L280.505 78.5173V49.4653L280.52 49.4801ZM332.974 86.4163C316.894 86.4163 305.283 75.8399 305.283 58.4146C305.283 40.9893 315.652 29.4662 331.731 29.4662C346.361 29.4662 353.831 39.6284 355.487 53.2225L350.606 59.3465H316.894C317.826 73.3548 325.918 77.9108 338.047 77.9108C342.825 77.9108 348.934 76.9789 353.195 75.9434V81.7568C347.795 84.0348 340.961 86.4311 332.959 86.4311L332.974 86.4163ZM316.894 52.5864H344.482C344.171 42.4242 339.601 36.3002 331.095 36.3002C322.589 36.3002 317.812 41.9064 316.88 52.5864H316.894ZM394.11 79.5675V84.9667H361.227V79.5675L369.939 78.5321V42.0248L361.123 38.6078V35.2943L377.824 29.8951H381.034V38.8149C385.294 33.6228 390.782 29.481 396.388 29.481C397.631 29.481 399.08 29.688 399.923 29.8951V40.7822C397.231 40.2645 395.042 40.161 392.557 40.161C389.347 40.161 385.294 40.5751 381.048 41.9212V78.5321L394.125 79.5675H394.11ZM410.337 105.705V102.496L431.298 80.9136L409.612 37.454L402.867 36.4185V30.9158H429.73V36.4185L422.053 37.454L436.371 69.8194L450.276 37.454L442.392 36.4185V30.9158H464.802V36.4185L458.16 37.454L426.106 105.705H410.337Z" fill="#232323"/>
</svg>
